<?xml version="1.0" encoding="UTF-8" standalone="no"?>
<svg
   height="48"
   width="48"
   version="1.1"
   id="svg669"
   sodipodi:docname="check_FILL0_wght400_GRAD0_opsz48-green1.svg"
   inkscape:version="1.2 (1:1.2.1+202207142221+cd75a1ee6d)"
   xmlns:inkscape="http://www.inkscape.org/namespaces/inkscape"
   xmlns:sodipodi="http://sodipodi.sourceforge.net/DTD/sodipodi-0.dtd"
   xmlns="http://www.w3.org/2000/svg"
   xmlns:svg="http://www.w3.org/2000/svg">
  <defs
     id="defs673" />
  <sodipodi:namedview
     id="namedview671"
     pagecolor="#ffffff"
     bordercolor="#000000"
     borderopacity="0.25"
     inkscape:showpageshadow="2"
     inkscape:pageopacity="0.0"
     inkscape:pagecheckerboard="0"
     inkscape:deskcolor="#d1d1d1"
     showgrid="false"
     inkscape:zoom="14.604167"
     inkscape:cx="20.199715"
     inkscape:cy="21.43224"
     inkscape:window-width="1920"
     inkscape:window-height="901"
     inkscape:window-x="0"
     inkscape:window-y="25"
     inkscape:window-maximized="1"
     inkscape:current-layer="svg669" />
  <path
     d="M18.9 35.7 7.7 24.5l2.15-2.15 9.05 9.05 19.2-19.2 2.15 2.15Z"
     id="path667" />
  <path
     style="fill:#00ff00;stroke-width:0.0342368"
     d="m 38.091254,12.208631 c -6.397496,6.397507 -12.795008,12.794997 -19.192538,19.19247 -3.013913,-3.013881 -6.027845,-6.027745 -9.0417928,-9.041592 -0.3567945,0.290924 -0.6776883,0.668498 -1.02067,0.992759 -0.3765918,0.376748 -0.7531743,0.753506 -1.1297625,1.130257 0.2911176,0.35679 0.6683743,0.67778 0.9926331,1.020797 3.3951012,3.390118 6.7790392,6.791478 10.1863522,10.169289 0.271176,-0.200234 0.501775,-0.491966 0.757978,-0.72541 6.873617,-6.855458 13.733268,-13.724818 20.599101,-20.588071 -0.290924,-0.356795 -0.668497,-0.677688 -0.992759,-1.02067 -0.376775,-0.376632 -0.753549,-0.753264 -1.130324,-1.129896 z"
     id="path800" />
</svg>
