<?xml version="1.0" encoding="UTF-8" standalone="no"?>
<svg
   height="48"
   width="48"
   version="1.1"
   id="svg669"
   sodipodi:docname="check_FILL0_wght400_GRAD0_opsz48-green2.svg"
   inkscape:version="1.2 (1:1.2.1+202207142221+cd75a1ee6d)"
   xmlns:inkscape="http://www.inkscape.org/namespaces/inkscape"
   xmlns:sodipodi="http://sodipodi.sourceforge.net/DTD/sodipodi-0.dtd"
   xmlns="http://www.w3.org/2000/svg"
   xmlns:svg="http://www.w3.org/2000/svg">
  <defs
     id="defs673" />
  <sodipodi:namedview
     id="namedview671"
     pagecolor="#ffffff"
     bordercolor="#000000"
     borderopacity="0.25"
     inkscape:showpageshadow="2"
     inkscape:pageopacity="0.0"
     inkscape:pagecheckerboard="0"
     inkscape:deskcolor="#d1d1d1"
     showgrid="false"
     inkscape:zoom="20.653411"
     inkscape:cx="16.437963"
     inkscape:cy="26.533147"
     inkscape:window-width="1920"
     inkscape:window-height="1031"
     inkscape:window-x="0"
     inkscape:window-y="25"
     inkscape:window-maximized="1"
     inkscape:current-layer="svg669" />
  <path
     d="M18.9 35.7 7.7 24.5l2.15-2.15 9.05 9.05 19.2-19.2 2.15 2.15Z"
     id="path667" />
  <path
     style="fill:#00ff00;stroke-width:0.0342368"
     d="m 38.091254,12.208631 c -6.397496,6.397507 -12.795008,12.794997 -19.192538,19.19247 -3.013913,-3.013881 -6.027845,-6.027745 -9.0417928,-9.041592 -0.3567945,0.290924 -0.6776883,0.668498 -1.02067,0.992759 -0.3765918,0.376748 -0.7531743,0.753506 -1.1297625,1.130257 0.2911176,0.35679 0.6683743,0.67778 0.9926331,1.020797 3.3951012,3.390118 6.7790392,6.791478 10.1863522,10.169289 0.271176,-0.200234 0.501775,-0.491966 0.757978,-0.72541 6.873617,-6.855458 13.733268,-13.724818 20.599101,-20.588071 -0.290924,-0.356795 -0.668497,-0.677688 -0.992759,-1.02067 -0.376775,-0.376632 -0.753549,-0.753264 -1.130324,-1.129896 z"
     id="path800" />
  <path
     style="fill:#00aa00;stroke-width:0.0484182"
     d="m 28.492286,21.810013 c -3.194968,3.194937 -6.389935,6.389873 -9.584903,9.584809 -3.013299,-3.013091 -6.026572,-6.026207 -9.0398203,-9.039348 -0.7058636,0.649285 -1.3974949,1.362693 -2.0647694,2.069309 -0.1535259,0.132225 0.1645017,0.24078 0.2048315,0.35349 3.5961222,3.653233 7.2362202,7.26272 10.8568252,10.891626 0.890211,-0.817447 1.74509,-1.720967 2.621518,-2.571721 6.264413,-6.232513 12.510831,-12.483076 18.763323,-18.727538 -0.669776,-0.736339 -1.426518,-1.436859 -2.129548,-2.159525 -0.870591,0.804151 -1.705163,1.69567 -2.561905,2.533416 -2.355184,2.355161 -4.710368,4.710322 -7.065552,7.065482 z"
     id="path1202" />
  <path
     style="fill:#00dd00;fill-opacity:0;stroke-width:0.0484182"
     d="m 28.492286,21.810013 c -3.194968,3.194937 -6.389935,6.389873 -9.584903,9.584809 -3.013299,-3.013091 -6.026572,-6.026207 -9.0398203,-9.039348 -0.7058334,0.648946 -1.396954,1.362822 -2.0646749,2.068647 -0.1537153,0.131918 0.164497,0.240491 0.2046424,0.353112 3.5691808,3.61064 7.1463878,7.214253 10.7815498,10.75857 0.08512,0.145389 0.200748,0.116435 0.281344,-0.01636 7.078643,-7.030308 14.1204,-14.09757 21.179246,-21.147763 -0.670098,-0.736679 -1.426736,-1.437553 -2.129927,-2.160565 -0.870591,0.804151 -1.705163,1.69567 -2.561905,2.533416 -2.355184,2.355161 -4.710368,4.710322 -7.065552,7.065482 z"
     id="path1273" />
  <path
     style="fill:#dd1e00;fill-opacity:0;stroke-width:0.0484182"
     d="m 28.492286,21.810013 c -3.194968,3.194937 -6.389935,6.389873 -9.584903,9.584809 -3.013299,-3.013091 -6.026572,-6.026207 -9.0398203,-9.039348 -0.7058334,0.648946 -1.396954,1.362822 -2.0646749,2.068647 -0.1537153,0.131918 0.164497,0.240491 0.2046424,0.353112 3.5691808,3.61064 7.1463878,7.214253 10.7815498,10.75857 0.08512,0.145389 0.200748,0.116435 0.281344,-0.01636 7.078643,-7.030308 14.1204,-14.09757 21.179246,-21.147763 -0.670098,-0.736679 -1.426736,-1.437553 -2.129927,-2.160565 -0.870591,0.804151 -1.705163,1.69567 -2.561905,2.533416 -2.355184,2.355161 -4.710368,4.710322 -7.065552,7.065482 z"
     id="path3141" />
  <path
     style="fill:#dd1e00;fill-opacity:0;stroke-width:0.0484182"
     d="m 28.492286,21.810013 c -3.194968,3.194937 -6.389935,6.389873 -9.584903,9.584809 -3.013299,-3.013091 -6.026572,-6.026207 -9.0398203,-9.039348 -0.7058334,0.648946 -1.396954,1.362822 -2.0646749,2.068647 -0.1537153,0.131918 0.164497,0.240491 0.2046424,0.353112 3.5691808,3.61064 7.1463878,7.214253 10.7815498,10.75857 0.08512,0.145389 0.200748,0.116435 0.281344,-0.01636 7.078643,-7.030308 14.1204,-14.09757 21.179246,-21.147763 -0.670098,-0.736679 -1.426736,-1.437553 -2.129927,-2.160565 -0.870591,0.804151 -1.705163,1.69567 -2.561905,2.533416 -2.355184,2.355161 -4.710368,4.710322 -7.065552,7.065482 z"
     id="path4385" />
  <path
     style="fill:#00dd00;fill-opacity:0;stroke-width:0.0484182"
     d="m 28.492286,21.810013 c -3.194968,3.194937 -6.389935,6.389873 -9.584903,9.584809 -3.013299,-3.013091 -6.026572,-6.026207 -9.0398203,-9.039348 -0.7058334,0.648946 -1.396954,1.362822 -2.0646749,2.068647 -0.1537153,0.131918 0.164497,0.240491 0.2046424,0.353112 3.5691808,3.61064 7.1463878,7.214253 10.7815498,10.75857 0.08512,0.145389 0.200748,0.116435 0.281344,-0.01636 7.078643,-7.030308 14.1204,-14.09757 21.179246,-21.147763 -0.670098,-0.736679 -1.426736,-1.437553 -2.129927,-2.160565 -0.870591,0.804151 -1.705163,1.69567 -2.561905,2.533416 -2.355184,2.355161 -4.710368,4.710322 -7.065552,7.065482 z"
     id="path4387" />
</svg>
