<?xml version="1.0" encoding="UTF-8" standalone="no"?>
<svg
   height="48"
   width="48"
   version="1.1"
   id="svg4"
   sodipodi:docname="check_circle_FILL0_wght400_GRAD0_opsz48-green.svg"
   inkscape:version="1.2 (1:1.2.1+202207142221+cd75a1ee6d)"
   xmlns:inkscape="http://www.inkscape.org/namespaces/inkscape"
   xmlns:sodipodi="http://sodipodi.sourceforge.net/DTD/sodipodi-0.dtd"
   xmlns="http://www.w3.org/2000/svg"
   xmlns:svg="http://www.w3.org/2000/svg">
  <defs
     id="defs8" />
  <sodipodi:namedview
     id="namedview6"
     pagecolor="#ffffff"
     bordercolor="#000000"
     borderopacity="0.25"
     inkscape:showpageshadow="2"
     inkscape:pageopacity="0.0"
     inkscape:pagecheckerboard="0"
     inkscape:deskcolor="#d1d1d1"
     showgrid="false"
     inkscape:zoom="17.3125"
     inkscape:cx="24.057762"
     inkscape:cy="24.173285"
     inkscape:window-width="1920"
     inkscape:window-height="1031"
     inkscape:window-x="0"
     inkscape:window-y="25"
     inkscape:window-maximized="1"
     inkscape:current-layer="svg4" />
  <path
     d="M21.05 33.1 35.2 18.95l-2.3-2.25-11.85 11.85-6-6-2.25 2.25ZM24 44q-4.1 0-7.75-1.575-3.65-1.575-6.375-4.3-2.725-2.725-4.3-6.375Q4 28.1 4 24q0-4.15 1.575-7.8 1.575-3.65 4.3-6.35 2.725-2.7 6.375-4.275Q19.9 4 24 4q4.15 0 7.8 1.575 3.65 1.575 6.35 4.275 2.7 2.7 4.275 6.35Q44 19.85 44 24q0 4.1-1.575 7.75-1.575 3.65-4.275 6.375t-6.35 4.3Q28.15 44 24 44Zm0-3q7.1 0 12.05-4.975Q41 31.05 41 24q0-7.1-4.95-12.05Q31.1 7 24 7q-7.05 0-12.025 4.95Q7 16.9 7 24q0 7.05 4.975 12.025Q16.95 41 24 41Zm0-17Z"
     id="path2"
     style="fill:#00ff00;fill-opacity:1" />
  <path
     style="fill:#00ff00;stroke-width:0.0577617;fill-opacity:1"
     d="M 23.779445,4.0130866 C 20.336306,4.0263923 16.920578,4.9999969 13.960656,6.7525997 12.33328,7.6834827 10.85069,8.8539451 9.5659175,10.219241 7.7247424,12.07071 6.3256914,14.34164 5.3594314,16.760379 4.3979421,19.225247 3.9260862,21.883995 4.0367318,24.53055 c 0.041538,4.800288 2.0808476,9.481038 5.2994595,13.004648 1.8365697,2.006823 4.0977087,3.607939 6.5819097,4.712248 2.427833,1.135857 5.114012,1.69641 7.7888,1.745326 3.323724,0.05127 6.665654,-0.722176 9.58913,-2.316179 3.779948,-1.947973 6.851734,-5.187643 8.683464,-9.018111 1.317564,-2.619762 2.000284,-5.544888 1.988916,-8.476961 0.05845,-2.836554 -0.508744,-5.67983 -1.681336,-8.264909 C 40.257228,11.309841 36.430699,7.520693 31.774015,5.5934253 29.268816,4.4799172 26.51351,3.9902936 23.779445,4.0130866 Z m 0.325925,2.9792419 c 3.831168,-0.00741 7.676908,1.282146 10.624678,3.7548015 2.371211,1.964567 4.299252,4.512908 5.321488,7.4342 0.944693,2.624266 1.088648,5.482098 0.801916,8.239135 -0.402697,3.06919 -1.687262,6.013636 -3.68231,8.385605 -2.358586,2.838448 -5.598263,5.011545 -9.236313,5.773902 C 23.792245,41.484684 19.280985,40.985121 15.59217,38.823331 11.896998,36.663015 8.9409655,33.143697 7.7045352,29.023127 6.7047165,25.526327 6.7404742,21.706059 7.9281363,18.260717 9.9243708,12.650875 15.057143,8.1845728 20.96875,7.2449233 22.004678,7.0737616 23.054656,6.9883274 24.10537,6.9923285 Z"
     id="path914" />
</svg>
