<?xml version="1.0" encoding="UTF-8" standalone="no"?>
<svg
   height="48"
   width="48"
   version="1.1"
   id="svg3124"
   sodipodi:docname="error_FILL0_wght400_GRAD0_opsz48.svg"
   inkscape:version="1.2 (1:1.2.1+202207142221+cd75a1ee6d)"
   xmlns:inkscape="http://www.inkscape.org/namespaces/inkscape"
   xmlns:sodipodi="http://sodipodi.sourceforge.net/DTD/sodipodi-0.dtd"
   xmlns="http://www.w3.org/2000/svg"
   xmlns:svg="http://www.w3.org/2000/svg">
  <defs
     id="defs3128" />
  <sodipodi:namedview
     id="namedview3126"
     pagecolor="#ffffff"
     bordercolor="#000000"
     borderopacity="0.25"
     inkscape:showpageshadow="2"
     inkscape:pageopacity="0.0"
     inkscape:pagecheckerboard="0"
     inkscape:deskcolor="#d1d1d1"
     showgrid="false"
     inkscape:zoom="11.313709"
     inkscape:cx="14.981824"
     inkscape:cy="24.174212"
     inkscape:window-width="1920"
     inkscape:window-height="1031"
     inkscape:window-x="0"
     inkscape:window-y="25"
     inkscape:window-maximized="1"
     inkscape:current-layer="svg3124" />
  <path
     d="M24 34q.7 0 1.175-.475.475-.475.475-1.175 0-.7-.475-1.175Q24.7 30.7 24 30.7q-.7 0-1.175.475-.475.475-.475 1.175 0 .7.475 1.175Q23.3 34 24 34Zm-1.35-7.65h3V13.7h-3ZM24 44q-4.1 0-7.75-1.575-3.65-1.575-6.375-4.3-2.725-2.725-4.3-6.375Q4 28.1 4 23.95q0-4.1 1.575-7.75 1.575-3.65 4.3-6.35 2.725-2.7 6.375-4.275Q19.9 4 24.05 4q4.1 0 7.75 1.575 3.65 1.575 6.35 4.275 2.7 2.7 4.275 6.35Q44 19.85 44 24q0 4.1-1.575 7.75-1.575 3.65-4.275 6.375t-6.35 4.3Q28.15 44 24 44Zm.05-3q7.05 0 12-4.975T41 23.95q0-7.05-4.95-12T24 7q-7.05 0-12.025 4.95Q7 16.9 7 24q0 7.05 4.975 12.025Q16.95 41 24.05 41ZM24 24Z"
     id="path3122" />
  <path
     style="fill:#ff0000;fill-opacity:1;stroke-width:0.0144404"
     d="m 23.978932,30.686344 c -0.501292,0.0013 -0.997557,0.237912 -1.300931,0.639621 -0.310986,0.374006 -0.382293,0.891334 -0.310137,1.359843 0.117866,0.698904 0.749215,1.264033 1.453947,1.3172 0.49481,0.05071 1.017435,-0.111743 1.365379,-0.474494 0.32289,-0.316692 0.493592,-0.772157 0.471483,-1.22272 -0.0058,-0.365046 -0.121146,-0.733459 -0.364699,-1.010632 -0.274475,-0.354169 -0.703706,-0.571931 -1.148893,-0.603093 -0.05526,-0.0044 -0.110715,-0.0063 -0.166149,-0.0057 z"
     id="path5401" />
  <path
     style="fill:#ff0000;fill-opacity:1;stroke-width:0.0441942"
     d="M 23.835506,3.9866252 C 20.260886,3.9794474 16.710944,5.018085 13.662557,6.8743 11.730428,8.0250089 10.035718,9.5469836 8.5664298,11.242072 5.7098734,14.706098 3.9933019,19.139643 3.9884004,23.646278 c -0.056941,2.623042 0.3997522,5.257778 1.3923294,7.689296 1.5513079,3.891196 4.3266522,7.290188 7.8727122,9.530086 3.744404,2.410311 8.310293,3.534526 12.743895,3.061208 5.46985,-0.492328 10.636308,-3.436211 13.928815,-7.819444 1.511115,-2.021702 2.667768,-4.316756 3.373247,-6.741051 C 44.380389,25.46362 44.256587,21.22515 42.921088,17.399989 41.803163,14.320772 39.997661,11.474468 37.571521,9.2605784 35.259722,7.1447059 32.444631,5.5830226 29.437808,4.7067658 27.618189,4.188017 25.726147,3.9594007 23.835506,3.9866252 Z m 0.04989,3.0464632 c 2.914609,-0.00918 5.870092,0.6169125 8.410725,2.0862105 4.155181,2.3732421 7.388688,6.4899521 8.312735,11.2181021 0.780263,3.948974 0.315672,8.198102 -1.63348,11.751453 -1.493364,2.718118 -3.743155,5.019132 -6.396242,6.62737 -3.266248,1.963832 -7.222662,2.579335 -10.969501,2.097046 C 18.25331,40.379524 15.043638,38.878187 12.580321,36.552898 10.591235,34.727889 8.9657613,32.476883 8.0485186,29.929641 6.8931248,26.780143 6.7525751,23.29825 7.4658237,20.030548 8.3173213,16.054238 10.841833,12.560038 14.0912,10.176142 16.905952,8.0860821 20.396914,7.0270529 23.885397,7.0330884 Z"
     id="path5433" />
  <path
     style="fill:#ff0000;fill-opacity:1;stroke-width:0.015625"
     d="m 22.628998,13.675293 c -0.03553,0.135824 -0.0045,0.285296 -0.01492,0.426269 0,4.078125 0,8.15625 0,12.234375 0.03365,0.09347 0.16187,0.03265 0.237487,0.04999 0.932292,0 1.864584,0 2.796875,0 0.09347,-0.03365 0.03265,-0.16187 0.04999,-0.237488 0,-4.145833 0,-8.291666 0,-12.4375 -0.03365,-0.09347 -0.16187,-0.03265 -0.237488,-0.04999 -0.932291,0 -1.864583,0 -2.796875,0 -0.01169,0.0048 -0.02338,0.0096 -0.03506,0.01434 z"
     id="path5435" />
</svg>
