<?xml version="1.0" encoding="UTF-8" standalone="no"?>
<svg
   height="48"
   width="48"
   version="1.1"
   id="svg4"
   sodipodi:docname="warning_FILL0_wght400_GRAD0_opsz48-red2.svg"
   inkscape:version="1.2 (1:1.2.1+202207142221+cd75a1ee6d)"
   xmlns:inkscape="http://www.inkscape.org/namespaces/inkscape"
   xmlns:sodipodi="http://sodipodi.sourceforge.net/DTD/sodipodi-0.dtd"
   xmlns="http://www.w3.org/2000/svg"
   xmlns:svg="http://www.w3.org/2000/svg">
  <defs
     id="defs8" />
  <sodipodi:namedview
     id="namedview6"
     pagecolor="#ffffff"
     bordercolor="#000000"
     borderopacity="0.25"
     inkscape:showpageshadow="2"
     inkscape:pageopacity="0.0"
     inkscape:pagecheckerboard="0"
     inkscape:deskcolor="#d1d1d1"
     showgrid="false"
     inkscape:zoom="12.241786"
     inkscape:cx="8.2912738"
     inkscape:cy="27.161069"
     inkscape:window-width="1920"
     inkscape:window-height="1031"
     inkscape:window-x="0"
     inkscape:window-y="25"
     inkscape:window-maximized="1"
     inkscape:current-layer="svg4" />
  <path
     d="M24.05 24.45ZM2 42 24 4l22 38Zm20.7-11.4h3V19.4h-3Zm1.5 5.55q.65 0 1.075-.425.425-.425.425-1.075 0-.65-.425-1.075-.425-.425-1.075-.425-.65 0-1.075.425Q22.7 34 22.7 34.65q0 .65.425 1.075.425.425 1.075.425ZM7.2 39h33.6L24 10Z"
     id="path2"
     style="fill:#ff0000" />
  <path
     style="fill:#ff0000;stroke-width:0.0102109"
     d="m 22.699113,19.405869 c 0,2.777373 0,5.554745 0,8.332118 0.05966,0.02346 0.13742,0.0032 0.203999,0.01 0.929195,0 1.858389,0 2.787584,0 0.02346,-0.05966 0.0032,-0.13742 0.01,-0.203999 0,-2.712703 0,-5.425407 0,-8.13811 -0.05966,-0.02346 -0.13742,-0.0032 -0.203999,-0.01 -0.929195,0 -1.858389,0 -2.787584,0 l -0.0072,0.0072 z"
     id="path211" />
  <path
     style="fill:#ff0000;stroke-width:0.0102109"
     d="m 24.1999,27.738445 c -0.496932,2.26e-4 -0.993864,4.52e-4 -1.490796,6.78e-4 -0.02346,0.05966 -0.0032,0.137421 -0.01,0.204 0,0.884641 0,1.769282 0,2.653924 0.05966,0.02346 0.13742,0.0032 0.203999,0.01 0.929195,0 1.858389,0 2.787584,0 0.02346,-0.05966 0.0032,-0.13742 0.01,-0.203999 0,-0.885093 0,-1.770187 0,-2.65528 -0.05966,-0.02344 -0.13742,-0.0032 -0.203999,-0.0099 -0.432263,1.97e-4 -0.864525,3.94e-4 -1.296788,5.9e-4 z"
     id="path213" />
  <path
     style="fill:#ff0000;stroke-width:0.0102109"
     d="m 24.180017,33.150098 c -0.354222,-0.0027 -0.71485,0.110845 -0.979153,0.352137 -0.275517,0.234973 -0.456158,0.575502 -0.492292,0.93612 -0.02272,0.295741 -0.0083,0.605311 0.125078,0.876076 0.19185,0.415588 0.589872,0.729063 1.041435,0.809998 0.209693,0.0388 0.42616,0.02684 0.636946,0.003 0.46235,-0.07652 0.866102,-0.404142 1.061219,-0.826487 0.08812,-0.193579 0.132619,-0.40629 0.121645,-0.619117 0.0051,-0.178545 -0.0022,-0.359702 -0.06349,-0.529473 -0.158393,-0.502341 -0.613236,-0.905102 -1.137671,-0.980193 -0.103661,-0.01658 -0.208793,-0.02298 -0.313716,-0.02203 z"
     id="path215" />
  <path
     style="fill:#dd0000;fill-opacity:1;stroke-width:0.0816874"
     d="M 24.053278,4.2096147 C 22.805969,6.0644774 21.744092,8.0506927 20.590075,9.9685773 14.408865,20.585048 8.2598385,31.220191 2.120044,41.860498 c 0.5963303,0.112018 1.3013365,0.02809 1.9344784,0.06479 13.9565066,0.07068 27.9132956,0.02997 41.8699256,0.04115 -1.01694,-1.887169 -2.178366,-3.779303 -3.249894,-5.668385 C 36.472691,25.602612 30.310526,14.880828 24.06987,4.2099338 l -0.01356,-0.00112 z m -0.03845,5.8945773 c 5.650031,9.597434 11.236945,19.232567 16.797775,28.881611 -11.197644,-0.0099 -22.3955,0.02485 -33.5929971,-0.03271 C 12.771864,29.302458 18.361896,19.672291 23.989938,10.065263 Z"
     id="path597" />
  <path
     style="fill:#dd0000;fill-opacity:1;stroke-width:0.0816874"
     d="m 22.689161,19.400764 c 0.01334,3.734268 -0.0266,7.490604 0.01994,11.21112 0.984131,-0.01332 1.990332,0.02663 2.960691,-0.01994 -0.01334,-3.734269 0.0266,-7.490604 -0.01994,-11.211121 -0.983973,0.01325 -1.990558,-0.02653 -2.960691,0.01994 z"
     id="path599" />
  <path
     style="fill:#dd0000;fill-opacity:1;stroke-width:0.0816874"
     d="m 24.08758,33.187591 c -1.051701,-0.01133 -1.731221,1.282598 -1.206964,2.169663 0.380478,0.806747 1.531253,1.054668 2.212581,0.472095 0.752183,-0.454091 0.716846,-1.58252 0.220013,-2.206996 -0.30195,-0.345219 -0.784405,-0.454104 -1.22563,-0.434762 z"
     id="path601" />
  <path
     style="fill:#dd0000;fill-opacity:0;stroke-width:0.0816874"
     d="M 24.038121,4.2721567 C 23.107925,5.4891228 22.414348,6.8827593 21.611874,8.188837 15.109715,19.39489 8.5937237,30.597334 2.1455713,41.83178 2.6836307,42.031012 3.3240052,41.86214 3.896102,41.92465 17.884189,41.95636 31.872694,41.98131 45.86063,41.92205 45.82636,41.604478 45.48892,41.255703 45.355827,40.933185 38.462632,29.00798 31.57764,17.07728 24.639446,5.1781117 24.433864,4.8955706 24.290157,4.4955068 24.038121,4.2721567 Z m -0.03382,5.8672953 c 2.20653,3.571565 4.249263,7.243605 6.381133,10.86061 3.467882,5.980656 6.950146,11.95262 10.386009,17.951439 -10.555087,0.04716 -21.11072,0.05126 -31.6658436,0.0064 -0.6061157,-0.02585 -1.2235742,0.01836 -1.8226507,-0.07929 C 12.78239,29.299403 18.330677,19.741485 23.905538,10.205025 c 0.0229,-0.01499 0.06665,-0.09193 0.09876,-0.06557 z"
     id="path6317" />
  <path
     style="fill:#dd0000;fill-opacity:0;stroke-width:0.0816874"
     d="M 24.038121,4.2721567 C 23.107925,5.4891228 22.414348,6.8827593 21.611874,8.188837 15.109715,19.39489 8.5937237,30.597334 2.1455713,41.83178 2.6836307,42.031012 3.3240052,41.86214 3.896102,41.92465 17.884189,41.95636 31.872694,41.98131 45.86063,41.92205 45.82636,41.604478 45.48892,41.255703 45.355827,40.933185 38.462632,29.00798 31.57764,17.07728 24.639446,5.1781117 24.433864,4.8955706 24.290157,4.4955068 24.038121,4.2721567 Z m -0.03382,5.8672953 c 2.20653,3.571565 4.249263,7.243605 6.381133,10.86061 3.467882,5.980656 6.950146,11.95262 10.386009,17.951439 -10.555087,0.04716 -21.11072,0.05126 -31.6658436,0.0064 -0.6061157,-0.02585 -1.2235742,0.01836 -1.8226507,-0.07929 C 12.78239,29.299403 18.330677,19.741485 23.905538,10.205025 c 0.0229,-0.01499 0.06665,-0.09193 0.09876,-0.06557 z"
     id="path6526" />
  <path
     style="fill:#dd0000;fill-opacity:0;stroke-width:0.0816874"
     d="m 22.730005,19.400764 c 0.01334,3.734269 -0.0266,7.490604 0.01994,11.211121 0.984131,-0.01333 1.990332,0.02663 2.960691,-0.01994 -0.01334,-3.734268 0.0266,-7.490604 -0.01994,-11.21112 -0.983973,0.01325 -1.990558,-0.02653 -2.960691,0.01994 z"
     id="path6528" />
  <path
     style="fill:#3cdd00;fill-opacity:0;stroke-width:0.0816874"
     d="m 24.167991,33.179295 c -0.766377,-0.01905 -1.450646,0.624811 -1.436071,1.402726 -0.174598,1.066412 1.147193,1.902048 2.078562,1.42618 1.161388,-0.384543 1.125614,-2.280901 0.0217,-2.705577 -0.209248,-0.08795 -0.437523,-0.128452 -0.664189,-0.123329 z"
     id="path6530" />
  <path
     style="fill:#3cdd00;fill-opacity:0;stroke-width:0.0816874"
     d="M 24.038121,4.2721567 C 23.107925,5.4891228 22.414348,6.8827593 21.611874,8.188837 15.109715,19.39489 8.5937237,30.597334 2.1455713,41.83178 2.6836307,42.031012 3.3240052,41.86214 3.896102,41.92465 17.884189,41.95636 31.872694,41.98131 45.86063,41.92205 45.82636,41.604478 45.48892,41.255703 45.355827,40.933185 38.462632,29.00798 31.57764,17.07728 24.639446,5.1781117 24.433864,4.8955706 24.290157,4.4955068 24.038121,4.2721567 Z m -0.03382,5.8672953 c 2.20653,3.571565 4.249263,7.243605 6.381133,10.86061 3.467882,5.980656 6.950146,11.95262 10.386009,17.951439 -10.555087,0.04716 -21.11072,0.05126 -31.6658436,0.0064 -0.6061157,-0.02585 -1.2235742,0.01836 -1.8226507,-0.07929 C 12.78239,29.299403 18.330677,19.741485 23.905538,10.205025 c 0.0229,-0.01499 0.06665,-0.09193 0.09876,-0.06557 z"
     id="path6877" />
  <path
     style="fill:#3cdd00;fill-opacity:0;stroke-width:0.0816874"
     d="m 22.730005,19.400764 c 0.01334,3.734269 -0.0266,7.490604 0.01994,11.211121 0.984131,-0.01333 1.990332,0.02663 2.960691,-0.01994 -0.01334,-3.734268 0.0266,-7.490604 -0.01994,-11.21112 -0.983973,0.01325 -1.990558,-0.02653 -2.960691,0.01994 z"
     id="path6879" />
  <path
     style="fill:#3cdd00;fill-opacity:0;stroke-width:0.0816874"
     d="M 24.038121,4.2721567 C 23.107925,5.4891228 22.414348,6.8827593 21.611874,8.188837 15.109715,19.39489 8.5937237,30.597334 2.1455713,41.83178 2.6836307,42.031012 3.3240052,41.86214 3.896102,41.92465 17.884189,41.95636 31.872694,41.98131 45.86063,41.92205 45.82636,41.604478 45.48892,41.255703 45.355827,40.933185 38.462632,29.00798 31.57764,17.07728 24.639446,5.1781117 24.433864,4.8955706 24.290157,4.4955068 24.038121,4.2721567 Z m -0.03382,5.8672953 c 2.20653,3.571565 4.249263,7.243605 6.381133,10.86061 3.467882,5.980656 6.950146,11.95262 10.386009,17.951439 -10.555087,0.04716 -21.11072,0.05126 -31.6658436,0.0064 -0.6061157,-0.02585 -1.2235742,0.01836 -1.8226507,-0.07929 C 12.78239,29.299403 18.330677,19.741485 23.905538,10.205025 c 0.0229,-0.01499 0.06665,-0.09193 0.09876,-0.06557 z"
     id="path6889" />
  <path
     style="fill:#008080;fill-opacity:0;stroke-width:0.0816874"
     d="M 24.038121,4.2721567 C 23.107925,5.4891228 22.414348,6.8827593 21.611874,8.188837 15.109715,19.39489 8.5937237,30.597334 2.1455713,41.83178 2.6836307,42.031012 3.3240052,41.86214 3.896102,41.92465 17.884189,41.95636 31.872694,41.98131 45.86063,41.92205 45.82636,41.604478 45.48892,41.255703 45.355827,40.933185 38.462632,29.00798 31.57764,17.07728 24.639446,5.1781117 24.433864,4.8955706 24.290157,4.4955068 24.038121,4.2721567 Z m -0.03382,5.8672953 c 2.20653,3.571565 4.249263,7.243605 6.381133,10.86061 3.467882,5.980656 6.950146,11.95262 10.386009,17.951439 -10.555087,0.04716 -21.11072,0.05126 -31.6658436,0.0064 -0.6061157,-0.02585 -1.2235742,0.01836 -1.8226507,-0.07929 C 12.78239,29.299403 18.330677,19.741485 23.905538,10.205025 c 0.0229,-0.01499 0.06665,-0.09193 0.09876,-0.06557 z"
     id="path6962" />
  <path
     style="fill:#ffd5d5;fill-opacity:0;stroke-width:0.0816874"
     d="M 24.038121,4.2721567 C 23.107925,5.4891228 22.414348,6.8827593 21.611874,8.188837 15.109715,19.39489 8.5937237,30.597334 2.1455713,41.83178 2.6836307,42.031012 3.3240052,41.86214 3.896102,41.92465 17.884189,41.95636 31.872694,41.98131 45.86063,41.92205 45.82636,41.604478 45.48892,41.255703 45.355827,40.933185 38.462632,29.00798 31.57764,17.07728 24.639446,5.1781117 24.433864,4.8955706 24.290157,4.4955068 24.038121,4.2721567 Z m -0.03382,5.8672953 c 2.20653,3.571565 4.249263,7.243605 6.381133,10.86061 3.467882,5.980656 6.950146,11.95262 10.386009,17.951439 -10.555087,0.04716 -21.11072,0.05126 -31.6658436,0.0064 -0.6061157,-0.02585 -1.2235742,0.01836 -1.8226507,-0.07929 C 12.78239,29.299403 18.330677,19.741485 23.905538,10.205025 c 0.0229,-0.01499 0.06665,-0.09193 0.09876,-0.06557 z"
     id="path7037" />
  <path
     style="fill:#ffd5d5;fill-opacity:0;stroke-width:0.0816874"
     d="M 24.038121,4.2721567 C 23.107925,5.4891228 22.414348,6.8827593 21.611874,8.188837 15.109715,19.39489 8.5937237,30.597334 2.1455713,41.83178 2.6836307,42.031012 3.3240052,41.86214 3.896102,41.92465 17.884189,41.95636 31.872694,41.98131 45.86063,41.92205 45.82636,41.604478 45.48892,41.255703 45.355827,40.933185 38.462632,29.00798 31.57764,17.07728 24.639446,5.1781117 24.433864,4.8955706 24.290157,4.4955068 24.038121,4.2721567 Z m -0.03382,5.8672953 c 2.20653,3.571565 4.249263,7.243605 6.381133,10.86061 3.467882,5.980656 6.950146,11.95262 10.386009,17.951439 -10.555087,0.04716 -21.11072,0.05126 -31.6658436,0.0064 -0.6061157,-0.02585 -1.2235742,0.01836 -1.8226507,-0.07929 C 12.78239,29.299403 18.330677,19.741485 23.905538,10.205025 c 0.0229,-0.01499 0.06665,-0.09193 0.09876,-0.06557 z"
     id="path7039" />
  <path
     style="fill:#ffd5d5;fill-opacity:0;stroke-width:0.0816874"
     d="M 24.038121,4.2721567 C 23.107925,5.4891228 22.414348,6.8827593 21.611874,8.188837 15.109715,19.39489 8.5937237,30.597334 2.1455713,41.83178 2.6836307,42.031012 3.3240052,41.86214 3.896102,41.92465 17.884189,41.95636 31.872694,41.98131 45.86063,41.92205 45.82636,41.604478 45.48892,41.255703 45.355827,40.933185 38.462632,29.00798 31.57764,17.07728 24.639446,5.1781117 24.433864,4.8955706 24.290157,4.4955068 24.038121,4.2721567 Z m -0.03382,5.8672953 c 2.20653,3.571565 4.249263,7.243605 6.381133,10.86061 3.467882,5.980656 6.950146,11.95262 10.386009,17.951439 -10.555087,0.04716 -21.11072,0.05126 -31.6658436,0.0064 -0.6061157,-0.02585 -1.2235742,0.01836 -1.8226507,-0.07929 C 12.78239,29.299403 18.330677,19.741485 23.905538,10.205025 c 0.0229,-0.01499 0.06665,-0.09193 0.09876,-0.06557 z"
     id="path7041" />
  <path
     style="fill:#ffd5d5;fill-opacity:0;stroke-width:0.0816874"
     d="M 24.038121,4.2721567 C 23.107925,5.4891228 22.414348,6.8827593 21.611874,8.188837 15.109715,19.39489 8.5937237,30.597334 2.1455713,41.83178 2.6836307,42.031012 3.3240052,41.86214 3.896102,41.92465 17.884189,41.95636 31.872694,41.98131 45.86063,41.92205 45.82636,41.604478 45.48892,41.255703 45.355827,40.933185 38.462632,29.00798 31.57764,17.07728 24.639446,5.1781117 24.433864,4.8955706 24.290157,4.4955068 24.038121,4.2721567 Z m -0.03382,5.8672953 c 2.20653,3.571565 4.249263,7.243605 6.381133,10.86061 3.467882,5.980656 6.950146,11.95262 10.386009,17.951439 -10.555087,0.04716 -21.11072,0.05126 -31.6658436,0.0064 -0.6061157,-0.02585 -1.2235742,0.01836 -1.8226507,-0.07929 C 12.78239,29.299403 18.330677,19.741485 23.905538,10.205025 c 0.0229,-0.01499 0.06665,-0.09193 0.09876,-0.06557 z"
     id="path7043" />
  <path
     style="fill:#ffd5d5;fill-opacity:0;stroke-width:0.0816874"
     d="m 23.952923,10.21747 c -5.610856,9.532531 -11.126855,19.125547 -16.6747647,28.696537 2.2040166,0.07 4.4829397,0.01 6.7157597,0.02999 8.910364,0 17.820729,0 26.731094,0 -1.652822,-2.935488 -3.41413,-5.895389 -5.10528,-8.841925 -3.802882,-6.52332 -7.526803,-13.094 -11.415172,-19.566687 -0.08408,-0.09024 -0.131827,-0.275751 -0.251637,-0.317915 z m 0.267399,9.162393 c 0.497092,0 0.994183,0 1.491274,0 0,3.744433 0,7.488865 0,11.233298 -1.00817,0.01453 -2.01634,0.02916 -3.024509,0.04387 0.01391,-3.759058 0.02789,-7.518116 0.04196,-11.277173 0.497092,0 0.994182,0 1.491274,0 z m -0.05807,13.779489 c 0.774569,-0.05295 1.536163,0.544973 1.529247,1.350235 0.120119,0.792799 -0.485861,1.663878 -1.340823,1.609179 -0.821197,0.142421 -1.719986,-0.529085 -1.620716,-1.402722 -0.14763,-0.832669 0.603603,-1.623665 1.432292,-1.556692 z"
     id="path7045" />
  <path
     style="fill:#000000;fill-opacity:0;stroke-width:0.0816874"
     d="M 24.038121,4.2721567 C 23.107925,5.4891228 22.414348,6.8827593 21.611874,8.188837 15.109715,19.39489 8.5937237,30.597334 2.1455713,41.83178 2.6836307,42.031012 3.3240052,41.86214 3.896102,41.92465 17.884189,41.95636 31.872694,41.98131 45.86063,41.92205 45.82636,41.604478 45.48892,41.255703 45.355827,40.933185 38.462632,29.00798 31.57764,17.07728 24.639446,5.1781117 24.433864,4.8955706 24.290157,4.4955068 24.038121,4.2721567 Z m -0.03382,5.8672953 c 2.20653,3.571565 4.249263,7.243605 6.381133,10.86061 3.467882,5.980656 6.950146,11.95262 10.386009,17.951439 -10.555087,0.04716 -21.11072,0.05126 -31.6658436,0.0064 -0.6061157,-0.02585 -1.2235742,0.01836 -1.8226507,-0.07929 C 12.78239,29.299403 18.330677,19.741485 23.905538,10.205025 c 0.0229,-0.01499 0.06665,-0.09193 0.09876,-0.06557 z"
     id="path7120" />
</svg>
