<?xml version="1.0" encoding="UTF-8" standalone="no"?>
<svg
   height="48"
   width="48"
   version="1.1"
   id="svg4"
   sodipodi:docname="warning_FILL0_wght400_GRAD0_opsz48-red1.svg"
   inkscape:version="1.2 (1:1.2.1+202207142221+cd75a1ee6d)"
   xmlns:inkscape="http://www.inkscape.org/namespaces/inkscape"
   xmlns:sodipodi="http://sodipodi.sourceforge.net/DTD/sodipodi-0.dtd"
   xmlns="http://www.w3.org/2000/svg"
   xmlns:svg="http://www.w3.org/2000/svg">
  <defs
     id="defs8" />
  <sodipodi:namedview
     id="namedview6"
     pagecolor="#ffffff"
     bordercolor="#000000"
     borderopacity="0.25"
     inkscape:showpageshadow="2"
     inkscape:pageopacity="0.0"
     inkscape:pagecheckerboard="0"
     inkscape:deskcolor="#d1d1d1"
     showgrid="false"
     inkscape:zoom="12.241786"
     inkscape:cx="23.199229"
     inkscape:cy="27.120225"
     inkscape:window-width="1920"
     inkscape:window-height="1031"
     inkscape:window-x="0"
     inkscape:window-y="25"
     inkscape:window-maximized="1"
     inkscape:current-layer="svg4" />
  <path
     d="M24.05 24.45ZM2 42 24 4l22 38Zm20.7-11.4h3V19.4h-3Zm1.5 5.55q.65 0 1.075-.425.425-.425.425-1.075 0-.65-.425-1.075-.425-.425-1.075-.425-.65 0-1.075.425Q22.7 34 22.7 34.65q0 .65.425 1.075.425.425 1.075.425ZM7.2 39h33.6L24 10Z"
     id="path2"
     style="fill:#ff0000" />
  <path
     style="fill:#ff0000;stroke-width:0.0102109"
     d="m 22.699113,19.405869 c 0,2.777373 0,5.554745 0,8.332118 0.05966,0.02346 0.13742,0.0032 0.203999,0.01 0.929195,0 1.858389,0 2.787584,0 0.02346,-0.05966 0.0032,-0.13742 0.01,-0.203999 0,-2.712703 0,-5.425407 0,-8.13811 -0.05966,-0.02346 -0.13742,-0.0032 -0.203999,-0.01 -0.929195,0 -1.858389,0 -2.787584,0 l -0.0072,0.0072 z"
     id="path211" />
  <path
     style="fill:#ff0000;stroke-width:0.0102109"
     d="m 24.1999,27.738445 c -0.496932,2.26e-4 -0.993864,4.52e-4 -1.490796,6.78e-4 -0.02346,0.05966 -0.0032,0.137421 -0.01,0.204 0,0.884641 0,1.769282 0,2.653924 0.05966,0.02346 0.13742,0.0032 0.203999,0.01 0.929195,0 1.858389,0 2.787584,0 0.02346,-0.05966 0.0032,-0.13742 0.01,-0.203999 0,-0.885093 0,-1.770187 0,-2.65528 -0.05966,-0.02344 -0.13742,-0.0032 -0.203999,-0.0099 -0.432263,1.97e-4 -0.864525,3.94e-4 -1.296788,5.9e-4 z"
     id="path213" />
  <path
     style="fill:#ff0000;stroke-width:0.0102109"
     d="m 24.180017,33.150098 c -0.354222,-0.0027 -0.71485,0.110845 -0.979153,0.352137 -0.275517,0.234973 -0.456158,0.575502 -0.492292,0.93612 -0.02272,0.295741 -0.0083,0.605311 0.125078,0.876076 0.19185,0.415588 0.589872,0.729063 1.041435,0.809998 0.209693,0.0388 0.42616,0.02684 0.636946,0.003 0.46235,-0.07652 0.866102,-0.404142 1.061219,-0.826487 0.08812,-0.193579 0.132619,-0.40629 0.121645,-0.619117 0.0051,-0.178545 -0.0022,-0.359702 -0.06349,-0.529473 -0.158393,-0.502341 -0.613236,-0.905102 -1.137671,-0.980193 -0.103661,-0.01658 -0.208793,-0.02298 -0.313716,-0.02203 z"
     id="path215" />
</svg>
